<mxfile host="app.diagrams.net" agent="Mozilla/5.0 (Windows NT 10.0; Win64; x64) AppleWebKit/537.36 (KHTML, like Gecko) Chrome/137.0.0.0 Safari/537.36 Edg/137.0.0.0" version="27.1.6">
  <diagram id="prtHgNgQTEPvFCAcTncT" name="Page-1">
    <mxGraphModel dx="1418" dy="828" grid="1" gridSize="10" guides="1" tooltips="1" connect="1" arrows="1" fold="1" page="1" pageScale="1" pageWidth="827" pageHeight="1169" math="0" shadow="0">
      <root>
        <mxCell id="0" />
        <mxCell id="1" parent="0" />
        <mxCell id="4LqqJ3p2xM7wTtoJatOa-37" value="Pool" style="swimlane;childLayout=stackLayout;resizeParent=1;resizeParentMax=0;startSize=20;html=1;" vertex="1" parent="1">
          <mxGeometry x="80" y="30" width="970" height="1030" as="geometry" />
        </mxCell>
        <mxCell id="4LqqJ3p2xM7wTtoJatOa-38" value="使用部门" style="swimlane;startSize=20;html=1;" vertex="1" parent="4LqqJ3p2xM7wTtoJatOa-37">
          <mxGeometry y="20" width="130" height="1010" as="geometry" />
        </mxCell>
        <mxCell id="4LqqJ3p2xM7wTtoJatOa-46" value="使用者发起" style="rounded=1;whiteSpace=wrap;html=1;" vertex="1" parent="4LqqJ3p2xM7wTtoJatOa-38">
          <mxGeometry x="10" y="130" width="100" height="40" as="geometry" />
        </mxCell>
        <mxCell id="4LqqJ3p2xM7wTtoJatOa-79" value="接受" style="rounded=1;whiteSpace=wrap;html=1;" vertex="1" parent="4LqqJ3p2xM7wTtoJatOa-38">
          <mxGeometry x="30" y="520" width="60" height="40" as="geometry" />
        </mxCell>
        <mxCell id="4LqqJ3p2xM7wTtoJatOa-39" value="总经办" style="swimlane;startSize=20;html=1;" vertex="1" parent="4LqqJ3p2xM7wTtoJatOa-37">
          <mxGeometry x="130" y="20" width="120" height="1010" as="geometry" />
        </mxCell>
        <mxCell id="4LqqJ3p2xM7wTtoJatOa-48" value="审核" style="rounded=1;whiteSpace=wrap;html=1;" vertex="1" parent="4LqqJ3p2xM7wTtoJatOa-39">
          <mxGeometry x="30" y="130" width="60" height="40" as="geometry" />
        </mxCell>
        <mxCell id="4LqqJ3p2xM7wTtoJatOa-52" value="审核" style="rounded=1;whiteSpace=wrap;html=1;" vertex="1" parent="4LqqJ3p2xM7wTtoJatOa-39">
          <mxGeometry x="30" y="210" width="60" height="40" as="geometry" />
        </mxCell>
        <mxCell id="4LqqJ3p2xM7wTtoJatOa-65" value="审核" style="rounded=1;whiteSpace=wrap;html=1;" vertex="1" parent="4LqqJ3p2xM7wTtoJatOa-39">
          <mxGeometry x="30" y="720" width="60" height="40" as="geometry" />
        </mxCell>
        <mxCell id="4LqqJ3p2xM7wTtoJatOa-108" value="金额小于5000元" style="text;html=1;align=center;verticalAlign=middle;whiteSpace=wrap;rounded=0;fontColor=#CC0000;" vertex="1" parent="4LqqJ3p2xM7wTtoJatOa-39">
          <mxGeometry x="10" y="50" width="90" height="30" as="geometry" />
        </mxCell>
        <mxCell id="4LqqJ3p2xM7wTtoJatOa-170" value="金额大于5000元" style="text;html=1;align=center;verticalAlign=middle;whiteSpace=wrap;rounded=0;fontColor=#CC0000;" vertex="1" parent="4LqqJ3p2xM7wTtoJatOa-39">
          <mxGeometry x="20" y="170" width="90" height="30" as="geometry" />
        </mxCell>
        <mxCell id="4LqqJ3p2xM7wTtoJatOa-188" value="金额大于5000元或不合格" style="text;html=1;align=center;verticalAlign=middle;whiteSpace=wrap;rounded=0;fontColor=#CC0000;" vertex="1" parent="4LqqJ3p2xM7wTtoJatOa-39">
          <mxGeometry x="10" y="670" width="90" height="30" as="geometry" />
        </mxCell>
        <mxCell id="4LqqJ3p2xM7wTtoJatOa-40" value="评估小组" style="swimlane;startSize=20;html=1;" vertex="1" parent="4LqqJ3p2xM7wTtoJatOa-37">
          <mxGeometry x="250" y="20" width="120" height="1010" as="geometry" />
        </mxCell>
        <mxCell id="4LqqJ3p2xM7wTtoJatOa-47" value="评审" style="rounded=1;whiteSpace=wrap;html=1;" vertex="1" parent="4LqqJ3p2xM7wTtoJatOa-40">
          <mxGeometry x="30" y="130" width="60" height="40" as="geometry" />
        </mxCell>
        <mxCell id="4LqqJ3p2xM7wTtoJatOa-82" style="edgeStyle=orthogonalEdgeStyle;rounded=0;orthogonalLoop=1;jettySize=auto;html=1;exitX=0.5;exitY=1;exitDx=0;exitDy=0;entryX=0.5;entryY=0;entryDx=0;entryDy=0;" edge="1" parent="4LqqJ3p2xM7wTtoJatOa-40" source="4LqqJ3p2xM7wTtoJatOa-63" target="4LqqJ3p2xM7wTtoJatOa-64">
          <mxGeometry relative="1" as="geometry" />
        </mxCell>
        <mxCell id="4LqqJ3p2xM7wTtoJatOa-63" value="接受评估" style="rounded=1;whiteSpace=wrap;html=1;" vertex="1" parent="4LqqJ3p2xM7wTtoJatOa-40">
          <mxGeometry x="30" y="560" width="60" height="40" as="geometry" />
        </mxCell>
        <mxCell id="4LqqJ3p2xM7wTtoJatOa-64" value="审核" style="rounded=1;whiteSpace=wrap;html=1;" vertex="1" parent="4LqqJ3p2xM7wTtoJatOa-40">
          <mxGeometry x="30" y="640" width="60" height="40" as="geometry" />
        </mxCell>
        <mxCell id="4LqqJ3p2xM7wTtoJatOa-187" value="无计量仪器&lt;div&gt;不需要试机&lt;/div&gt;&lt;div&gt;或验收不合格&lt;/div&gt;" style="text;html=1;align=center;verticalAlign=middle;whiteSpace=wrap;rounded=0;fontColor=#CC0000;" vertex="1" parent="4LqqJ3p2xM7wTtoJatOa-40">
          <mxGeometry x="20" y="360" width="90" height="30" as="geometry" />
        </mxCell>
        <mxCell id="4LqqJ3p2xM7wTtoJatOa-41" value="设备部或使用部门" style="swimlane;startSize=20;html=1;" vertex="1" parent="4LqqJ3p2xM7wTtoJatOa-37">
          <mxGeometry x="370" y="20" width="120" height="1010" as="geometry" />
        </mxCell>
        <mxCell id="4LqqJ3p2xM7wTtoJatOa-49" value="审核" style="rounded=1;whiteSpace=wrap;html=1;" vertex="1" parent="4LqqJ3p2xM7wTtoJatOa-41">
          <mxGeometry x="30" y="60" width="60" height="40" as="geometry" />
        </mxCell>
        <mxCell id="4LqqJ3p2xM7wTtoJatOa-68" value="台账" style="rounded=1;whiteSpace=wrap;html=1;" vertex="1" parent="4LqqJ3p2xM7wTtoJatOa-41">
          <mxGeometry x="20" y="820" width="60" height="40" as="geometry" />
        </mxCell>
        <mxCell id="4LqqJ3p2xM7wTtoJatOa-171" value="总经理" style="rounded=1;whiteSpace=wrap;html=1;" vertex="1" parent="4LqqJ3p2xM7wTtoJatOa-41">
          <mxGeometry x="30" y="130" width="60" height="40" as="geometry" />
        </mxCell>
        <mxCell id="4LqqJ3p2xM7wTtoJatOa-56" value="收货" style="rounded=1;whiteSpace=wrap;html=1;" vertex="1" parent="4LqqJ3p2xM7wTtoJatOa-41">
          <mxGeometry x="20" y="380" width="60" height="40" as="geometry" />
        </mxCell>
        <mxCell id="4LqqJ3p2xM7wTtoJatOa-190" value="金额小于5000元" style="text;html=1;align=center;verticalAlign=middle;whiteSpace=wrap;rounded=0;fontColor=#CC0000;" vertex="1" parent="4LqqJ3p2xM7wTtoJatOa-41">
          <mxGeometry x="-20" y="670" width="90" height="30" as="geometry" />
        </mxCell>
        <mxCell id="4LqqJ3p2xM7wTtoJatOa-195" value="无需付款" style="text;html=1;align=center;verticalAlign=middle;whiteSpace=wrap;rounded=0;fontColor=#CC0000;" vertex="1" parent="4LqqJ3p2xM7wTtoJatOa-41">
          <mxGeometry x="15" y="310" width="90" height="30" as="geometry" />
        </mxCell>
        <mxCell id="4LqqJ3p2xM7wTtoJatOa-42" value="PMC" style="swimlane;startSize=20;html=1;" vertex="1" parent="4LqqJ3p2xM7wTtoJatOa-37">
          <mxGeometry x="490" y="20" width="120" height="1010" as="geometry" />
        </mxCell>
        <mxCell id="4LqqJ3p2xM7wTtoJatOa-103" style="edgeStyle=orthogonalEdgeStyle;rounded=0;orthogonalLoop=1;jettySize=auto;html=1;exitX=0.5;exitY=1;exitDx=0;exitDy=0;entryX=0.5;entryY=0;entryDx=0;entryDy=0;" edge="1" parent="4LqqJ3p2xM7wTtoJatOa-42" source="4LqqJ3p2xM7wTtoJatOa-50" target="4LqqJ3p2xM7wTtoJatOa-51">
          <mxGeometry relative="1" as="geometry" />
        </mxCell>
        <mxCell id="4LqqJ3p2xM7wTtoJatOa-50" value="签订合同" style="rounded=1;whiteSpace=wrap;html=1;" vertex="1" parent="4LqqJ3p2xM7wTtoJatOa-42">
          <mxGeometry x="30" y="130" width="60" height="40" as="geometry" />
        </mxCell>
        <mxCell id="4LqqJ3p2xM7wTtoJatOa-51" value="审核" style="rounded=1;whiteSpace=wrap;html=1;" vertex="1" parent="4LqqJ3p2xM7wTtoJatOa-42">
          <mxGeometry x="30" y="210" width="60" height="40" as="geometry" />
        </mxCell>
        <mxCell id="4LqqJ3p2xM7wTtoJatOa-62" value="试产排单" style="rounded=1;whiteSpace=wrap;html=1;" vertex="1" parent="4LqqJ3p2xM7wTtoJatOa-42">
          <mxGeometry x="30" y="560" width="60" height="40" as="geometry" />
        </mxCell>
        <mxCell id="4LqqJ3p2xM7wTtoJatOa-66" value="发票" style="rounded=1;whiteSpace=wrap;html=1;" vertex="1" parent="4LqqJ3p2xM7wTtoJatOa-42">
          <mxGeometry x="30" y="720" width="60" height="40" as="geometry" />
        </mxCell>
        <mxCell id="4LqqJ3p2xM7wTtoJatOa-93" value="退货处理" style="rounded=1;whiteSpace=wrap;html=1;" vertex="1" parent="4LqqJ3p2xM7wTtoJatOa-42">
          <mxGeometry x="30" y="780" width="60" height="40" as="geometry" />
        </mxCell>
        <mxCell id="4LqqJ3p2xM7wTtoJatOa-174" value="下单" style="rounded=1;whiteSpace=wrap;html=1;" vertex="1" parent="4LqqJ3p2xM7wTtoJatOa-42">
          <mxGeometry x="30" y="260" width="60" height="40" as="geometry" />
        </mxCell>
        <mxCell id="4LqqJ3p2xM7wTtoJatOa-54" value="发货验收" style="rounded=1;whiteSpace=wrap;html=1;" vertex="1" parent="4LqqJ3p2xM7wTtoJatOa-42">
          <mxGeometry x="30" y="320" width="60" height="40" as="geometry" />
        </mxCell>
        <mxCell id="4LqqJ3p2xM7wTtoJatOa-184" value="有计量仪器" style="text;html=1;align=center;verticalAlign=middle;whiteSpace=wrap;rounded=0;fontColor=#CC0000;" vertex="1" parent="4LqqJ3p2xM7wTtoJatOa-42">
          <mxGeometry x="20" y="410" width="90" height="30" as="geometry" />
        </mxCell>
        <mxCell id="4LqqJ3p2xM7wTtoJatOa-186" value="无计量仪器" style="text;html=1;align=center;verticalAlign=middle;whiteSpace=wrap;rounded=0;fontColor=#CC0000;" vertex="1" parent="4LqqJ3p2xM7wTtoJatOa-42">
          <mxGeometry x="20" y="470" width="90" height="30" as="geometry" />
        </mxCell>
        <mxCell id="4LqqJ3p2xM7wTtoJatOa-43" value="品质部" style="swimlane;startSize=20;html=1;" vertex="1" parent="4LqqJ3p2xM7wTtoJatOa-37">
          <mxGeometry x="610" y="20" width="120" height="1010" as="geometry" />
        </mxCell>
        <mxCell id="4LqqJ3p2xM7wTtoJatOa-57" value="仪器校正" style="rounded=1;whiteSpace=wrap;html=1;" vertex="1" parent="4LqqJ3p2xM7wTtoJatOa-43">
          <mxGeometry x="30" y="420" width="60" height="40" as="geometry" />
        </mxCell>
        <mxCell id="4LqqJ3p2xM7wTtoJatOa-44" value="财务部" style="swimlane;startSize=20;html=1;" vertex="1" parent="4LqqJ3p2xM7wTtoJatOa-37">
          <mxGeometry x="730" y="20" width="120" height="1010" as="geometry" />
        </mxCell>
        <mxCell id="4LqqJ3p2xM7wTtoJatOa-53" value="付第一笔款" style="rounded=1;whiteSpace=wrap;html=1;" vertex="1" parent="4LqqJ3p2xM7wTtoJatOa-44">
          <mxGeometry x="30" y="250" width="60" height="40" as="geometry" />
        </mxCell>
        <mxCell id="4LqqJ3p2xM7wTtoJatOa-55" value="付第二笔款" style="rounded=1;whiteSpace=wrap;html=1;" vertex="1" parent="4LqqJ3p2xM7wTtoJatOa-44">
          <mxGeometry x="30" y="380" width="60" height="40" as="geometry" />
        </mxCell>
        <mxCell id="4LqqJ3p2xM7wTtoJatOa-67" value="付第三笔款" style="rounded=1;whiteSpace=wrap;html=1;" vertex="1" parent="4LqqJ3p2xM7wTtoJatOa-44">
          <mxGeometry x="30" y="720" width="60" height="40" as="geometry" />
        </mxCell>
        <mxCell id="4LqqJ3p2xM7wTtoJatOa-90" value="结束" style="rounded=1;whiteSpace=wrap;html=1;" vertex="1" parent="4LqqJ3p2xM7wTtoJatOa-44">
          <mxGeometry x="30" y="950" width="60" height="40" as="geometry" />
        </mxCell>
        <mxCell id="4LqqJ3p2xM7wTtoJatOa-192" value="需要试产" style="text;html=1;align=center;verticalAlign=middle;whiteSpace=wrap;rounded=0;fontColor=#CC0000;" vertex="1" parent="4LqqJ3p2xM7wTtoJatOa-44">
          <mxGeometry x="30" y="560" width="90" height="30" as="geometry" />
        </mxCell>
        <mxCell id="4LqqJ3p2xM7wTtoJatOa-193" value="不需要试产" style="text;html=1;align=center;verticalAlign=middle;whiteSpace=wrap;rounded=0;fontColor=#CC0000;" vertex="1" parent="4LqqJ3p2xM7wTtoJatOa-44">
          <mxGeometry x="30" y="510" width="90" height="30" as="geometry" />
        </mxCell>
        <mxCell id="4LqqJ3p2xM7wTtoJatOa-58" value="工程部或实验室" style="swimlane;startSize=20;html=1;" vertex="1" parent="4LqqJ3p2xM7wTtoJatOa-37">
          <mxGeometry x="850" y="20" width="120" height="1010" as="geometry" />
        </mxCell>
        <mxCell id="4LqqJ3p2xM7wTtoJatOa-61" value="试机评估" style="rounded=1;whiteSpace=wrap;html=1;" vertex="1" parent="4LqqJ3p2xM7wTtoJatOa-58">
          <mxGeometry x="30" y="470" width="60" height="40" as="geometry" />
        </mxCell>
        <mxCell id="4LqqJ3p2xM7wTtoJatOa-74" style="edgeStyle=orthogonalEdgeStyle;rounded=0;orthogonalLoop=1;jettySize=auto;html=1;exitX=0;exitY=0.5;exitDx=0;exitDy=0;entryX=1;entryY=0.5;entryDx=0;entryDy=0;" edge="1" parent="4LqqJ3p2xM7wTtoJatOa-37" source="4LqqJ3p2xM7wTtoJatOa-55" target="4LqqJ3p2xM7wTtoJatOa-56">
          <mxGeometry relative="1" as="geometry" />
        </mxCell>
        <mxCell id="4LqqJ3p2xM7wTtoJatOa-78" style="edgeStyle=orthogonalEdgeStyle;rounded=0;orthogonalLoop=1;jettySize=auto;html=1;exitX=0.5;exitY=1;exitDx=0;exitDy=0;entryX=1;entryY=0.5;entryDx=0;entryDy=0;" edge="1" parent="4LqqJ3p2xM7wTtoJatOa-37" source="4LqqJ3p2xM7wTtoJatOa-61" target="4LqqJ3p2xM7wTtoJatOa-62">
          <mxGeometry relative="1" as="geometry" />
        </mxCell>
        <mxCell id="4LqqJ3p2xM7wTtoJatOa-81" style="edgeStyle=orthogonalEdgeStyle;rounded=0;orthogonalLoop=1;jettySize=auto;html=1;exitX=0;exitY=0.5;exitDx=0;exitDy=0;" edge="1" parent="4LqqJ3p2xM7wTtoJatOa-37" source="4LqqJ3p2xM7wTtoJatOa-62" target="4LqqJ3p2xM7wTtoJatOa-63">
          <mxGeometry relative="1" as="geometry" />
        </mxCell>
        <mxCell id="4LqqJ3p2xM7wTtoJatOa-83" style="edgeStyle=orthogonalEdgeStyle;rounded=0;orthogonalLoop=1;jettySize=auto;html=1;exitX=0.5;exitY=1;exitDx=0;exitDy=0;entryX=0;entryY=0.5;entryDx=0;entryDy=0;" edge="1" parent="4LqqJ3p2xM7wTtoJatOa-37" source="4LqqJ3p2xM7wTtoJatOa-79" target="4LqqJ3p2xM7wTtoJatOa-64">
          <mxGeometry relative="1" as="geometry" />
        </mxCell>
        <mxCell id="4LqqJ3p2xM7wTtoJatOa-84" style="edgeStyle=orthogonalEdgeStyle;rounded=0;orthogonalLoop=1;jettySize=auto;html=1;exitX=0.5;exitY=1;exitDx=0;exitDy=0;entryX=0.5;entryY=0;entryDx=0;entryDy=0;" edge="1" parent="4LqqJ3p2xM7wTtoJatOa-37" source="4LqqJ3p2xM7wTtoJatOa-64" target="4LqqJ3p2xM7wTtoJatOa-65">
          <mxGeometry relative="1" as="geometry" />
        </mxCell>
        <mxCell id="4LqqJ3p2xM7wTtoJatOa-86" style="edgeStyle=orthogonalEdgeStyle;rounded=0;orthogonalLoop=1;jettySize=auto;html=1;exitX=1;exitY=0.5;exitDx=0;exitDy=0;entryX=0;entryY=0.5;entryDx=0;entryDy=0;" edge="1" parent="4LqqJ3p2xM7wTtoJatOa-37" source="4LqqJ3p2xM7wTtoJatOa-65" target="4LqqJ3p2xM7wTtoJatOa-66">
          <mxGeometry relative="1" as="geometry" />
        </mxCell>
        <mxCell id="4LqqJ3p2xM7wTtoJatOa-87" style="edgeStyle=orthogonalEdgeStyle;rounded=0;orthogonalLoop=1;jettySize=auto;html=1;exitX=1;exitY=0.5;exitDx=0;exitDy=0;entryX=0;entryY=0.5;entryDx=0;entryDy=0;" edge="1" parent="4LqqJ3p2xM7wTtoJatOa-37" source="4LqqJ3p2xM7wTtoJatOa-66" target="4LqqJ3p2xM7wTtoJatOa-67">
          <mxGeometry relative="1" as="geometry" />
        </mxCell>
        <mxCell id="4LqqJ3p2xM7wTtoJatOa-92" style="edgeStyle=orthogonalEdgeStyle;rounded=0;orthogonalLoop=1;jettySize=auto;html=1;exitX=0.5;exitY=1;exitDx=0;exitDy=0;entryX=1;entryY=0.5;entryDx=0;entryDy=0;" edge="1" parent="4LqqJ3p2xM7wTtoJatOa-37" source="4LqqJ3p2xM7wTtoJatOa-67" target="4LqqJ3p2xM7wTtoJatOa-68">
          <mxGeometry relative="1" as="geometry" />
        </mxCell>
        <mxCell id="4LqqJ3p2xM7wTtoJatOa-94" style="edgeStyle=orthogonalEdgeStyle;rounded=0;orthogonalLoop=1;jettySize=auto;html=1;exitX=0.5;exitY=1;exitDx=0;exitDy=0;entryX=0;entryY=0.5;entryDx=0;entryDy=0;" edge="1" parent="4LqqJ3p2xM7wTtoJatOa-37" source="4LqqJ3p2xM7wTtoJatOa-65" target="4LqqJ3p2xM7wTtoJatOa-93">
          <mxGeometry relative="1" as="geometry" />
        </mxCell>
        <mxCell id="4LqqJ3p2xM7wTtoJatOa-95" style="edgeStyle=orthogonalEdgeStyle;rounded=0;orthogonalLoop=1;jettySize=auto;html=1;exitX=0.5;exitY=1;exitDx=0;exitDy=0;entryX=0.5;entryY=0;entryDx=0;entryDy=0;" edge="1" parent="4LqqJ3p2xM7wTtoJatOa-37" source="4LqqJ3p2xM7wTtoJatOa-93" target="4LqqJ3p2xM7wTtoJatOa-90">
          <mxGeometry relative="1" as="geometry" />
        </mxCell>
        <mxCell id="4LqqJ3p2xM7wTtoJatOa-96" style="edgeStyle=orthogonalEdgeStyle;rounded=0;orthogonalLoop=1;jettySize=auto;html=1;exitX=0.5;exitY=1;exitDx=0;exitDy=0;entryX=0;entryY=0.5;entryDx=0;entryDy=0;" edge="1" parent="4LqqJ3p2xM7wTtoJatOa-37" source="4LqqJ3p2xM7wTtoJatOa-68" target="4LqqJ3p2xM7wTtoJatOa-90">
          <mxGeometry relative="1" as="geometry" />
        </mxCell>
        <mxCell id="4LqqJ3p2xM7wTtoJatOa-100" style="edgeStyle=orthogonalEdgeStyle;rounded=0;orthogonalLoop=1;jettySize=auto;html=1;exitX=1;exitY=0.5;exitDx=0;exitDy=0;" edge="1" parent="4LqqJ3p2xM7wTtoJatOa-37" source="4LqqJ3p2xM7wTtoJatOa-46" target="4LqqJ3p2xM7wTtoJatOa-48">
          <mxGeometry relative="1" as="geometry" />
        </mxCell>
        <mxCell id="4LqqJ3p2xM7wTtoJatOa-101" style="edgeStyle=orthogonalEdgeStyle;rounded=0;orthogonalLoop=1;jettySize=auto;html=1;exitX=1;exitY=0.5;exitDx=0;exitDy=0;entryX=0;entryY=0.5;entryDx=0;entryDy=0;" edge="1" parent="4LqqJ3p2xM7wTtoJatOa-37" source="4LqqJ3p2xM7wTtoJatOa-48" target="4LqqJ3p2xM7wTtoJatOa-47">
          <mxGeometry relative="1" as="geometry" />
        </mxCell>
        <mxCell id="4LqqJ3p2xM7wTtoJatOa-104" style="edgeStyle=orthogonalEdgeStyle;rounded=0;orthogonalLoop=1;jettySize=auto;html=1;exitX=0;exitY=0.5;exitDx=0;exitDy=0;entryX=1;entryY=0.5;entryDx=0;entryDy=0;" edge="1" parent="4LqqJ3p2xM7wTtoJatOa-37" source="4LqqJ3p2xM7wTtoJatOa-51" target="4LqqJ3p2xM7wTtoJatOa-52">
          <mxGeometry relative="1" as="geometry" />
        </mxCell>
        <mxCell id="4LqqJ3p2xM7wTtoJatOa-105" style="edgeStyle=orthogonalEdgeStyle;rounded=0;orthogonalLoop=1;jettySize=auto;html=1;exitX=1;exitY=0.25;exitDx=0;exitDy=0;entryX=0;entryY=0.5;entryDx=0;entryDy=0;" edge="1" parent="4LqqJ3p2xM7wTtoJatOa-37" source="4LqqJ3p2xM7wTtoJatOa-46" target="4LqqJ3p2xM7wTtoJatOa-49">
          <mxGeometry relative="1" as="geometry">
            <Array as="points">
              <mxPoint x="150" y="160" />
              <mxPoint x="150" y="100" />
            </Array>
          </mxGeometry>
        </mxCell>
        <mxCell id="4LqqJ3p2xM7wTtoJatOa-106" style="edgeStyle=orthogonalEdgeStyle;rounded=0;orthogonalLoop=1;jettySize=auto;html=1;exitX=1;exitY=0.5;exitDx=0;exitDy=0;entryX=0.5;entryY=0;entryDx=0;entryDy=0;" edge="1" parent="4LqqJ3p2xM7wTtoJatOa-37" source="4LqqJ3p2xM7wTtoJatOa-49" target="4LqqJ3p2xM7wTtoJatOa-50">
          <mxGeometry relative="1" as="geometry" />
        </mxCell>
        <mxCell id="4LqqJ3p2xM7wTtoJatOa-172" style="edgeStyle=orthogonalEdgeStyle;rounded=0;orthogonalLoop=1;jettySize=auto;html=1;exitX=1;exitY=0.5;exitDx=0;exitDy=0;entryX=0;entryY=0.5;entryDx=0;entryDy=0;" edge="1" parent="4LqqJ3p2xM7wTtoJatOa-37" source="4LqqJ3p2xM7wTtoJatOa-47" target="4LqqJ3p2xM7wTtoJatOa-171">
          <mxGeometry relative="1" as="geometry" />
        </mxCell>
        <mxCell id="4LqqJ3p2xM7wTtoJatOa-173" style="edgeStyle=orthogonalEdgeStyle;rounded=0;orthogonalLoop=1;jettySize=auto;html=1;exitX=1;exitY=0.5;exitDx=0;exitDy=0;entryX=0;entryY=0.5;entryDx=0;entryDy=0;" edge="1" parent="4LqqJ3p2xM7wTtoJatOa-37" source="4LqqJ3p2xM7wTtoJatOa-171" target="4LqqJ3p2xM7wTtoJatOa-50">
          <mxGeometry relative="1" as="geometry" />
        </mxCell>
        <mxCell id="4LqqJ3p2xM7wTtoJatOa-175" style="edgeStyle=orthogonalEdgeStyle;rounded=0;orthogonalLoop=1;jettySize=auto;html=1;exitX=0.5;exitY=1;exitDx=0;exitDy=0;entryX=0;entryY=0.5;entryDx=0;entryDy=0;" edge="1" parent="4LqqJ3p2xM7wTtoJatOa-37" source="4LqqJ3p2xM7wTtoJatOa-52" target="4LqqJ3p2xM7wTtoJatOa-174">
          <mxGeometry relative="1" as="geometry" />
        </mxCell>
        <mxCell id="4LqqJ3p2xM7wTtoJatOa-176" style="edgeStyle=orthogonalEdgeStyle;rounded=0;orthogonalLoop=1;jettySize=auto;html=1;exitX=1;exitY=0.5;exitDx=0;exitDy=0;entryX=0;entryY=0.75;entryDx=0;entryDy=0;" edge="1" parent="4LqqJ3p2xM7wTtoJatOa-37" source="4LqqJ3p2xM7wTtoJatOa-174" target="4LqqJ3p2xM7wTtoJatOa-53">
          <mxGeometry relative="1" as="geometry" />
        </mxCell>
        <mxCell id="4LqqJ3p2xM7wTtoJatOa-177" style="edgeStyle=orthogonalEdgeStyle;rounded=0;orthogonalLoop=1;jettySize=auto;html=1;exitX=0.5;exitY=1;exitDx=0;exitDy=0;entryX=1;entryY=0.5;entryDx=0;entryDy=0;" edge="1" parent="4LqqJ3p2xM7wTtoJatOa-37" source="4LqqJ3p2xM7wTtoJatOa-53" target="4LqqJ3p2xM7wTtoJatOa-54">
          <mxGeometry relative="1" as="geometry" />
        </mxCell>
        <mxCell id="4LqqJ3p2xM7wTtoJatOa-180" style="edgeStyle=orthogonalEdgeStyle;rounded=0;orthogonalLoop=1;jettySize=auto;html=1;exitX=0.75;exitY=1;exitDx=0;exitDy=0;entryX=0;entryY=0.5;entryDx=0;entryDy=0;" edge="1" parent="4LqqJ3p2xM7wTtoJatOa-37" source="4LqqJ3p2xM7wTtoJatOa-56" target="4LqqJ3p2xM7wTtoJatOa-57">
          <mxGeometry relative="1" as="geometry" />
        </mxCell>
        <mxCell id="4LqqJ3p2xM7wTtoJatOa-181" style="edgeStyle=orthogonalEdgeStyle;rounded=0;orthogonalLoop=1;jettySize=auto;html=1;exitX=1;exitY=0.5;exitDx=0;exitDy=0;entryX=0.5;entryY=0;entryDx=0;entryDy=0;" edge="1" parent="4LqqJ3p2xM7wTtoJatOa-37" source="4LqqJ3p2xM7wTtoJatOa-57" target="4LqqJ3p2xM7wTtoJatOa-61">
          <mxGeometry relative="1" as="geometry" />
        </mxCell>
        <mxCell id="4LqqJ3p2xM7wTtoJatOa-182" style="edgeStyle=orthogonalEdgeStyle;rounded=0;orthogonalLoop=1;jettySize=auto;html=1;exitX=0.5;exitY=1;exitDx=0;exitDy=0;entryX=0;entryY=0.5;entryDx=0;entryDy=0;" edge="1" parent="4LqqJ3p2xM7wTtoJatOa-37" source="4LqqJ3p2xM7wTtoJatOa-56" target="4LqqJ3p2xM7wTtoJatOa-61">
          <mxGeometry relative="1" as="geometry" />
        </mxCell>
        <mxCell id="4LqqJ3p2xM7wTtoJatOa-185" style="edgeStyle=orthogonalEdgeStyle;rounded=0;orthogonalLoop=1;jettySize=auto;html=1;exitX=0.5;exitY=1;exitDx=0;exitDy=0;entryX=0.5;entryY=0;entryDx=0;entryDy=0;" edge="1" parent="4LqqJ3p2xM7wTtoJatOa-37" source="4LqqJ3p2xM7wTtoJatOa-54" target="4LqqJ3p2xM7wTtoJatOa-55">
          <mxGeometry relative="1" as="geometry">
            <Array as="points">
              <mxPoint x="550" y="400" />
              <mxPoint x="670" y="400" />
              <mxPoint x="670" y="380" />
              <mxPoint x="790" y="380" />
            </Array>
          </mxGeometry>
        </mxCell>
        <mxCell id="4LqqJ3p2xM7wTtoJatOa-189" style="edgeStyle=orthogonalEdgeStyle;rounded=0;orthogonalLoop=1;jettySize=auto;html=1;exitX=0.75;exitY=1;exitDx=0;exitDy=0;entryX=0.5;entryY=0;entryDx=0;entryDy=0;" edge="1" parent="4LqqJ3p2xM7wTtoJatOa-37" source="4LqqJ3p2xM7wTtoJatOa-64" target="4LqqJ3p2xM7wTtoJatOa-68">
          <mxGeometry relative="1" as="geometry">
            <Array as="points">
              <mxPoint x="325" y="720" />
              <mxPoint x="420" y="720" />
            </Array>
          </mxGeometry>
        </mxCell>
        <mxCell id="4LqqJ3p2xM7wTtoJatOa-191" style="edgeStyle=orthogonalEdgeStyle;rounded=0;orthogonalLoop=1;jettySize=auto;html=1;exitX=0.25;exitY=1;exitDx=0;exitDy=0;entryX=1;entryY=0.5;entryDx=0;entryDy=0;" edge="1" parent="4LqqJ3p2xM7wTtoJatOa-37" source="4LqqJ3p2xM7wTtoJatOa-61" target="4LqqJ3p2xM7wTtoJatOa-79">
          <mxGeometry relative="1" as="geometry" />
        </mxCell>
        <mxCell id="4LqqJ3p2xM7wTtoJatOa-194" style="edgeStyle=orthogonalEdgeStyle;rounded=0;orthogonalLoop=1;jettySize=auto;html=1;exitX=0;exitY=0.5;exitDx=0;exitDy=0;entryX=0.5;entryY=0;entryDx=0;entryDy=0;" edge="1" parent="4LqqJ3p2xM7wTtoJatOa-37" source="4LqqJ3p2xM7wTtoJatOa-54" target="4LqqJ3p2xM7wTtoJatOa-56">
          <mxGeometry relative="1" as="geometry" />
        </mxCell>
        <mxCell id="4LqqJ3p2xM7wTtoJatOa-197" style="edgeStyle=orthogonalEdgeStyle;rounded=0;orthogonalLoop=1;jettySize=auto;html=1;exitX=0;exitY=0.5;exitDx=0;exitDy=0;entryX=0;entryY=0.25;entryDx=0;entryDy=0;" edge="1" parent="4LqqJ3p2xM7wTtoJatOa-37" source="4LqqJ3p2xM7wTtoJatOa-56" target="4LqqJ3p2xM7wTtoJatOa-64">
          <mxGeometry relative="1" as="geometry" />
        </mxCell>
      </root>
    </mxGraphModel>
  </diagram>
</mxfile>
